<?xml version="1.0" encoding="UTF-8" standalone="no" ?>
<!DOCTYPE svg PUBLIC "-//W3C//DTD SVG 1.1//EN" "http://www.w3.org/Graphics/SVG/1.1/DTD/svg11.dtd">
<svg xmlns="http://www.w3.org/2000/svg" xmlns:xlink="http://www.w3.org/1999/xlink" version="1.1" width="1793px" height="547px" viewBox="-0.5 -0.5 1793 547"><defs/><path d="M 1350.55 266.27 C 1302.02 217.75 1302.02 139.07 1350.55 90.54 C 1399.08 42.02 1477.77 42.02 1526.3 90.54 C 1574.83 42.02 1653.52 42.02 1702.05 90.54 C 1750.59 139.07 1750.59 217.75 1702.05 266.27 L 1526.3 442 Z Z" fill="#e51400" stroke="#ffcccc" stroke-width="4" stroke-miterlimit="10" pointer-events="none"/><g fill="#ffffff" font-family="Comic Sans MS, Arial, Helvetica, sans-serif" text-anchor="middle" font-size="96px"><text x="1524.78" y="274.5">Pi</text></g><g fill="#000000" font-family="Comic Sans MS, Arial, Helvetica, sans-serif" font-weight="bold" text-anchor="middle" font-size="96px"><text x="555.5" y="275.5">+</text></g><ellipse cx="242" cy="242" rx="200" ry="200" fill="none" stroke="#009587" stroke-width="4" pointer-events="none"/><rect x="42" y="42" width="0" height="0" fill="none" stroke="#009587" stroke-width="4" pointer-events="none"/><ellipse cx="242" cy="242" rx="148" ry="148" fill="#009587" stroke="none" pointer-events="none"/><g fill="#FFFFFF" font-family="Comic Sans MS, Arial, Helvetica, sans-serif" text-anchor="middle" font-size="96px"><text x="240.5" y="274.5">Flic</text></g><g fill="#000000" font-family="Comic Sans MS, Arial, Helvetica, sans-serif" font-weight="bold" text-anchor="middle" font-size="96px"><text x="1181.5" y="275.5">=</text></g><path d="M 763.43 52 L 972.57 52 L 1068 242 L 972.57 432 L 763.43 432 L 668 242 Z" fill="#e3c800" stroke="#ffd966" stroke-width="4" stroke-miterlimit="10" transform="rotate(90,868,242)" pointer-events="none"/><g fill="#ffffff" font-family="Comic Sans MS, Arial, Helvetica, sans-serif" text-anchor="middle" font-size="96px"><text x="866.5" y="274.5">balena</text></g><path d="M 42 504 L 1750 502" fill="none" stroke="#000000" stroke-opacity="0" stroke-width="2" stroke-miterlimit="10" pointer-events="none"/></svg>
